<svg width="33" height="35" viewBox="0 0 33 35" fill="none" xmlns="http://www.w3.org/2000/svg">
<g clip-path="url(#clip0)">
<path d="M23.7032 25.6191L23.5569 25.7286C21.4914 27.2109 19.0292 28.0062 16.5056 28.0062C13.9821 28.0062 11.5199 27.2109 9.45437 25.7286C9.40475 25.6939 9.35513 25.6538 9.30551 25.6165L6.95508 27.3842C7.24235 27.6272 7.53746 27.8622 7.84302 28.0812C10.3834 29.9002 13.4096 30.8759 16.5109 30.8759C19.6122 30.8759 22.6384 29.9002 25.1787 28.0812C25.4843 27.8622 25.7768 27.6272 26.0641 27.3842L23.7032 25.6191Z" fill="#fff"/>
<path d="M33 25.4296L25.1835 19.5549L24.4627 19.0209L23.5983 18.372L19.3048 15.1382C17.2652 13.6188 16.9205 13.3517 16.5078 13.3838C16.0952 13.3517 15.7479 13.6188 13.7056 15.1382L13.609 15.213L13.2094 15.512C11.7365 16.6122 9.78039 18.0809 7.83476 19.5523L0 25.4296L1.66619 27.7448L2.61159 27.0372V35.0001H5.41904V24.933C8.55294 22.5831 12.4964 19.6083 14.9618 17.7631L16.5052 16.6095C17.7405 17.5308 20.2946 19.4454 23.1752 21.6111L27.5914 24.933V35.0001H30.4041V27.0452L31.339 27.7448L33 25.4296Z" fill="#fff"/>
<path d="M2.15451 20.2438L4.57283 18.4253C4.13846 16.58 4.11905 14.6581 4.51606 12.804C4.91308 10.9499 5.71618 9.2121 6.86493 7.72125C8.01368 6.23039 9.47817 5.02535 11.1482 4.19681C12.8182 3.36827 14.6503 2.9378 16.5065 2.9378C18.3627 2.9378 20.1947 3.36827 21.8648 4.19681C23.5348 5.02535 24.9993 6.23039 26.148 7.72125C27.2968 9.2121 28.0999 10.9499 28.4969 12.804C28.8939 14.6581 28.8745 16.58 28.4401 18.4253L30.8532 20.2411C30.9629 19.902 31.0621 19.5602 31.1457 19.2157C31.7085 16.9295 31.7517 14.5417 31.272 12.2358C30.7922 9.92976 29.8023 7.76676 28.3782 5.91266C26.954 4.05855 25.1334 2.56262 23.0561 1.53959C20.9787 0.516569 18.6998 -0.00636182 16.3942 0.0109125C14.0885 0.0281868 11.8174 0.585207 9.75491 1.63925C7.69246 2.69329 5.89352 4.21634 4.49608 6.09158C3.09864 7.96683 2.13983 10.1444 1.69319 12.4574C1.24655 14.7703 1.32395 17.1571 1.91946 19.4347C1.98998 19.7151 2.07094 19.9821 2.15451 20.2438Z" fill="#fff"/>
</g>
<defs>
<clipPath id="clip0">
<rect width="33" height="35" fill="white"/>
</clipPath>
</defs>
</svg>
